<svg version="1.1" id="Layer_1" xmlns="http://www.w3.org/2000/svg" xmlns:xlink="http://www.w3.org/1999/xlink" x="0px" y="0px"
	 width="100%" viewBox="0 0 192 192" enable-background="new 0 0 192 192" xml:space="preserve">
<path fill="#010101" opacity="1.000000" stroke="none" 
	d="
M79.000000,1.000001 
	C116.978195,1.000000 154.956390,1.000000 192.967285,1.000000 
	C192.967285,64.941452 192.967285,128.882935 192.967285,192.912201 
	C129.095367,192.912201 65.190582,192.912201 1.142895,192.912201 
	C1.142895,129.000214 1.142895,65.000153 1.142895,1.000000 
	C25.090054,1.000000 49.076370,1.000000 73.831833,1.333720 
	C73.616997,2.109051 72.647011,2.585712 71.646301,2.985459 
	C69.024452,4.032792 65.256409,4.294862 63.979172,6.219620 
	C60.621708,11.279223 57.556797,16.814981 55.787251,22.593431 
	C50.466660,39.967808 58.566406,54.268223 75.958641,59.195911 
	C80.114395,60.373348 84.483971,60.855988 88.556107,62.242817 
	C90.524147,62.913067 92.957031,64.666115 93.475296,66.429703 
	C93.955170,68.062630 92.163239,70.363174 91.376846,72.356773 
	C87.417206,70.836929 84.379700,69.447533 81.211052,68.493858 
	C68.152962,64.563736 55.007320,63.485779 42.039505,68.666649 
	C34.552097,71.658005 31.141054,77.241287 31.813765,84.086060 
	C32.421902,90.273811 37.327557,95.086609 44.883389,96.666641 
	C47.577721,97.230080 50.352779,97.407455 53.925297,97.868790 
	C44.762241,104.491920 37.598591,111.865997 42.154556,123.264221 
	C46.669033,134.558655 57.496246,132.973816 67.525734,133.425201 
	C62.827938,139.482849 59.301971,145.895737 63.062469,153.280426 
	C66.907799,160.831696 74.308372,161.700104 81.776840,161.428604 
	C82.530190,171.325928 85.056763,175.147385 91.789398,177.220993 
	C98.823082,179.387283 104.993095,177.436646 110.005363,173.356064 
	C110.894135,177.240540 110.685921,183.058014 112.744217,184.018539 
	C118.123505,186.528793 125.160423,189.180466 130.326065,187.660965 
	C140.095535,184.787262 149.017014,179.030701 158.290863,174.472046 
	C158.122406,173.967896 157.953949,173.463760 157.785492,172.959625 
	C156.364120,172.872879 154.878632,172.474014 153.531921,172.750656 
	C145.523605,174.395721 138.748093,171.836823 132.671661,166.850174 
	C128.809830,163.680923 124.785049,160.640686 121.350418,157.048218 
	C119.483498,155.095505 118.459282,152.198288 117.476761,149.569458 
	C115.748299,144.944824 114.835419,139.949875 112.627350,135.593369 
	C111.192604,132.762634 110.450249,130.637833 111.270882,127.403549 
	C113.746918,117.645134 113.430244,108.223343 105.955338,100.283073 
	C105.370300,99.661606 104.958778,98.488823 105.074379,97.656708 
	C106.055717,90.592667 104.647560,84.162384 99.997261,78.831673 
	C103.530678,74.330162 107.402771,70.194992 104.951591,64.564133 
	C102.526001,58.992050 96.723633,59.038170 91.700958,58.092106 
	C90.886261,57.938644 90.032585,57.995415 89.215675,57.849796 
	C84.797417,57.062237 80.294304,56.565292 75.991249,55.358902 
	C68.965584,53.389217 66.698929,48.300133 71.015976,42.482162 
	C75.017563,37.089333 80.141983,32.410755 85.277794,28.007666 
	C92.155716,22.111013 93.014626,18.885435 87.742256,11.388794 
	C85.855171,8.705614 83.188156,6.580253 80.977310,4.110605 
	C80.168816,3.207471 79.650620,2.044460 79.000000,1.000001 
z"/>
<path fill="#F8F7F9" opacity="1.000000" stroke="none" 
	d="
M78.583328,1.000001 
	C79.650620,2.044460 80.168816,3.207471 80.977310,4.110605 
	C83.188156,6.580253 85.855171,8.705614 87.742256,11.388794 
	C93.014626,18.885435 92.155716,22.111013 85.277794,28.007666 
	C80.141983,32.410755 75.017563,37.089333 71.015976,42.482162 
	C66.698929,48.300133 68.965584,53.389217 75.991249,55.358902 
	C80.294304,56.565292 84.797417,57.062237 89.215675,57.849796 
	C90.032585,57.995415 90.886261,57.938644 91.700958,58.092106 
	C96.723633,59.038170 102.526001,58.992050 104.951591,64.564133 
	C107.402771,70.194992 103.530678,74.330162 99.997261,78.831673 
	C104.647560,84.162384 106.055717,90.592667 105.074379,97.656708 
	C104.958778,98.488823 105.370300,99.661606 105.955338,100.283073 
	C113.430244,108.223343 113.746918,117.645134 111.270882,127.403549 
	C110.450249,130.637833 111.192604,132.762634 112.627350,135.593369 
	C114.835419,139.949875 115.748299,144.944824 117.476761,149.569458 
	C118.459282,152.198288 119.483498,155.095505 121.350418,157.048218 
	C124.785049,160.640686 128.809830,163.680923 132.671661,166.850174 
	C138.748093,171.836823 145.523605,174.395721 153.531921,172.750656 
	C154.878632,172.474014 156.364120,172.872879 157.785492,172.959625 
	C157.953949,173.463760 158.122406,173.967896 158.290863,174.472046 
	C149.017014,179.030701 140.095535,184.787262 130.326065,187.660965 
	C125.160423,189.180466 118.123505,186.528793 112.744217,184.018539 
	C110.685921,183.058014 110.894135,177.240540 110.005363,173.356064 
	C104.993095,177.436646 98.823082,179.387283 91.789398,177.220993 
	C85.056763,175.147385 82.530190,171.325928 81.776840,161.428604 
	C74.308372,161.700104 66.907799,160.831696 63.062469,153.280426 
	C59.301971,145.895737 62.827938,139.482849 67.525734,133.425201 
	C57.496246,132.973816 46.669033,134.558655 42.154556,123.264221 
	C37.598591,111.865997 44.762241,104.491920 53.925297,97.868790 
	C50.352779,97.407455 47.577721,97.230080 44.883389,96.666641 
	C37.327557,95.086609 32.421902,90.273811 31.813765,84.086060 
	C31.141054,77.241287 34.552097,71.658005 42.039505,68.666649 
	C55.007320,63.485779 68.152962,64.563736 81.211052,68.493858 
	C84.379700,69.447533 87.417206,70.836929 91.376846,72.356773 
	C92.163239,70.363174 93.955170,68.062630 93.475296,66.429703 
	C92.957031,64.666115 90.524147,62.913067 88.556107,62.242817 
	C84.483971,60.855988 80.114395,60.373348 75.958641,59.195911 
	C58.566406,54.268223 50.466660,39.967808 55.787251,22.593431 
	C57.556797,16.814981 60.621708,11.279223 63.979172,6.219620 
	C65.256409,4.294862 69.024452,4.032792 71.646301,2.985459 
	C72.647011,2.585712 73.616997,2.109051 74.300491,1.333720 
	C75.388893,1.000000 76.777779,1.000000 78.583328,1.000001 
M59.129303,107.209122 
	C58.122921,114.034409 61.093441,117.427963 68.525955,117.943954 
	C78.156456,118.612549 90.741890,110.364449 94.416542,100.755814 
	C85.763657,97.397064 76.908844,96.487053 68.189209,99.671806 
	C64.883926,100.879028 62.329784,104.142769 59.129303,107.209122 
M71.596024,71.931900 
	C69.126198,71.665657 66.590714,70.916565 64.201271,71.241486 
	C60.183781,71.787773 56.191532,72.813423 52.340313,74.093613 
	C51.306759,74.437180 50.154503,76.504478 50.280228,77.645691 
	C50.396500,78.701164 51.990959,79.987526 53.210701,80.462013 
	C59.745762,83.004112 79.583763,79.666046 85.899452,74.862709 
	C81.173172,73.863953 76.818832,72.943794 71.596024,71.931900 
M85.391556,131.480728 
	C84.449669,131.791153 83.486641,132.049469 82.569725,132.421463 
	C79.392113,133.710571 76.773193,135.771133 77.939003,139.492920 
	C79.107925,143.224655 82.521660,144.212112 86.034096,143.390121 
	C92.224625,141.941376 96.486580,137.797363 100.213928,133.093307 
	C100.070793,132.477097 99.927658,131.860870 99.784523,131.244644 
	C95.261841,131.244644 90.739151,131.244644 85.391556,131.480728 
M101.004128,108.438049 
	C96.844276,113.867020 92.684425,119.295998 88.731400,124.455040 
	C93.473633,125.170212 98.602798,125.943733 104.242256,126.794212 
	C107.142151,120.507874 106.770851,114.094955 103.147499,107.815720 
	C102.993210,107.548340 101.966621,107.784317 101.004128,108.438049 
M95.305313,160.133896 
	C94.008255,164.490494 96.770103,165.544525 100.093567,165.537903 
	C104.683968,165.528778 108.279449,161.567627 108.668472,156.590378 
	C101.752472,154.695908 100.089577,155.071960 95.305313,160.133896 
M97.785515,89.089607 
	C96.982979,87.336838 96.180443,85.584068 95.260117,83.574051 
	C91.135933,86.246979 87.489700,88.610146 83.426430,91.243599 
	C88.499565,92.526962 92.924873,93.646439 97.940933,94.915367 
	C97.940933,93.089760 97.940933,91.490326 97.785515,89.089607 
M103.939888,144.713715 
	C103.505203,145.564240 103.070526,146.414780 102.468636,147.592484 
	C104.930504,148.131439 107.037819,148.592758 109.773056,149.191559 
	C108.952965,145.667969 108.309288,142.902359 107.423416,139.096115 
	C105.992134,141.379547 105.157921,142.710434 103.939888,144.713715 
z"/>
<path fill="#070707" opacity="1.000000" stroke="none" 
	d="
M59.281288,106.839134 
	C62.329784,104.142769 64.883926,100.879028 68.189209,99.671806 
	C76.908844,96.487053 85.763657,97.397064 94.416542,100.755814 
	C90.741890,110.364449 78.156456,118.612549 68.525955,117.943954 
	C61.093441,117.427963 58.122921,114.034409 59.281288,106.839134 
z"/>
<path fill="#0D0C0D" opacity="1.000000" stroke="none" 
	d="
M72.030258,71.977768 
	C76.818832,72.943794 81.173172,73.863953 85.899452,74.862709 
	C79.583763,79.666046 59.745762,83.004112 53.210701,80.462013 
	C51.990959,79.987526 50.396500,78.701164 50.280228,77.645691 
	C50.154503,76.504478 51.306759,74.437180 52.340313,74.093613 
	C56.191532,72.813423 60.183781,71.787773 64.201271,71.241486 
	C66.590714,70.916565 69.126198,71.665657 72.030258,71.977768 
z"/>
<path fill="#0C0C0C" opacity="1.000000" stroke="none" 
	d="
M85.804016,131.362686 
	C90.739151,131.244644 95.261841,131.244644 99.784523,131.244644 
	C99.927658,131.860870 100.070793,132.477097 100.213928,133.093307 
	C96.486580,137.797363 92.224625,141.941376 86.034096,143.390121 
	C82.521660,144.212112 79.107925,143.224655 77.939003,139.492920 
	C76.773193,135.771133 79.392113,133.710571 82.569725,132.421463 
	C83.486641,132.049469 84.449669,131.791153 85.804016,131.362686 
z"/>
<path fill="#0C0C0C" opacity="1.000000" stroke="none" 
	d="
M101.175262,108.111923 
	C101.966621,107.784317 102.993210,107.548340 103.147499,107.815720 
	C106.770851,114.094955 107.142151,120.507874 104.242256,126.794212 
	C98.602798,125.943733 93.473633,125.170212 88.731400,124.455040 
	C92.684425,119.295998 96.844276,113.867020 101.175262,108.111923 
z"/>
<path fill="#0E0E0E" opacity="1.000000" stroke="none" 
	d="
M95.530441,159.822205 
	C100.089577,155.071960 101.752472,154.695908 108.668472,156.590378 
	C108.279449,161.567627 104.683968,165.528778 100.093567,165.537903 
	C96.770103,165.544525 94.008255,164.490494 95.530441,159.822205 
z"/>
<path fill="#141414" opacity="1.000000" stroke="none" 
	d="
M97.863220,89.490250 
	C97.940933,91.490326 97.940933,93.089760 97.940933,94.915367 
	C92.924873,93.646439 88.499565,92.526962 83.426430,91.243599 
	C87.489700,88.610146 91.135933,86.246979 95.260117,83.574051 
	C96.180443,85.584068 96.982979,87.336838 97.863220,89.490250 
z"/>
<path fill="#212021" opacity="1.000000" stroke="none" 
	d="
M104.131790,144.377518 
	C105.157921,142.710434 105.992134,141.379547 107.423416,139.096115 
	C108.309288,142.902359 108.952965,145.667969 109.773056,149.191559 
	C107.037819,148.592758 104.930504,148.131439 102.468636,147.592484 
	C103.070526,146.414780 103.505203,145.564240 104.131790,144.377518 
z"/>
</svg>