<svg height="137.840488" viewBox="0 0 200 38.349911" width="725.47625" xmlns="http://www.w3.org/2000/svg"><g transform="matrix(.03925971645 0 0 .03925971645 140.73220275174 -90.81719018129)"><path d="m-1517.342 2652.1442v597c0 23.0693 21.0708 28 65.9995 28 45.2669 0 65.0008-6.3021 65.0008-28v-178.0006h125.9991c80.4158 0 140.0716-21.3042 174.4373-56.4681 40.433-43.6165 54.7499-96.1899 54.7499-155.5625 0-69.1236-16.0241-110.6146-49.7806-147.313-46.4741-49.0941-120.4234-59.6558-193.4059-59.6558zm131.0003 107.0001h117.9995c28.5248 0 57.0993 7.7344 75.2172 25.5622 18.4134 18.9632 25.7501 43.2505 25.7501 78.4063 0 31.7193-8.7053 59.3864-25.4367 76.1245-17.3941 17.973-44.6109 25.9062-89.5312 25.9062h-103.9989z"/><path d="m1008.4235 2652.1442v591.9699c0 24.4257 9.5327 32.998 65.9966 32.998 57.7857 0 64.9967-7.8887 64.9967-32.998v-197.9908h86.9954l114.2753 191.178c5.9658 10.1385 12.1739 20.3321 16.4055 24.4049 13.1801 13.4379 42.5349 15.6241 74.2773 15.6241 53.3539 0 65.5278-9.0695 65.5278-17.1861 0-5.7466-1.2415-10.3539-9.7808-22.7807l-131.243-203.2707s51.3602-15.0772 79.4645-46.1846c45.4542-46.027 54.0596-102.6731 54.0596-143.3679 0-60.2494-16.4113-106.3897-46.6537-136.6173-47.8073-46.1348-107.6748-55.7788-192.3337-55.7788zm130.9933 106.9947h120.9936c30.5578.138 55.8634 5.3654 72.6212 21.3733 15.8531 16.3258 21.5302 34.4275 21.5302 63.6843 0 30.7924-6.166 55.5868-20.8427 70.2786-13.8995 14.417-41.2333 24.6549-72.3087 24.6549h-121.9936z"/><path d="m-836.83873 3166.1442h261v106h-365.9413c-17.97339 0-26.0587-7.5943-26.0587-27.2495v-592.7505h131z"/><path d="m-321.68919 2652.1257c-23.55114 0-33.61447 7.8118-39.3125 25.9375-56.40551 173.4432-109.70307 356.1998-164.4375 534.6563-6.27849 20.3661-10.09375 30.2746-10.09375 40.9062 0 18.8295 29.15795 21.5938 66.5 21.5938 42.86846 0 58.24039-5.9276 66-13.5938 3.09785-3.0397 5.65056-7.8402 8.21875-15.4687l29.84375-105h241.5l28.124999 97.5c2.37863 8.0839 4.2938 17.0359 11.59375 24.0937 12.07289 11.6384 36.01879 12.4688 64.75 12.4688 42.25377 0 66.25-4.2979 66.25-22.4688 0-7.1548-1.02394-9.4206-4.34375-20.3125-57.53186-196.3551-112.42398-368.7474-168.249999-549.75-8.55568-25.9289-14.26055-30.5625-43.375-30.5625zm65.40625 104.0313h24.625c26.62928 91.6295 52.4896 185.5763 78.1875 280h-182c26.05437-92.9869 51.38863-185.2686 79.1875-280z"/><path d="m222.4171 3277.2951c-54.543 0-66.5221-8.1039-66.5221-31.2319v-200.0958c-128.015-208.5268-173.76824-300.8426-219.9921-393.8232h145c22.5812 52.9892 70.5243 145.1739 137 266h7c29.4996-60.6345 34.3852-61.2723 123-266h144.6238c-40.0156 87.0587-89.5047 187.8497-205.6238 393v201c0 21.5587-10.2584 31.1509-64.4858 31.1509z"/><path d="m549.43349 3272.1442c-18.4485 0-25-9.4149-25-25v-566.8771c0-19.5882 5.7769-28.1229 36-28.1229h386v107h-291v144h249v106h-249v157h297v106z"/></g><g transform="matrix(.12832354654 0 0 .12832354654 -5.63405114281 -48.80833959683)"><path d="m47.801436 422.39499c0-20.97792 14.862423-38.14518 38.744954-38.14518 25.14388 0 38.625 18.01001 38.625 39.16479 0 23.2638-17.03438 37.36549-38.44507 37.36549-23.303206 0-38.924884-15.89551-38.924884-38.3851z" fill="#00beca"/><path d="m48 492.64501c0-3.57073 2.002309-6.1518 6-6.1518h65.2723c3.44818 0 5.7277 2.73283 5.7277 6.09155v100.06645c0 17.06099 9.71449 36.90334 39.69604 36.90334 29.19892 0 44.30396-18.16849 44.30396-55.2632v-7.79814l31 59 4 20s-30.41502 29.40373-85.54154 29.40373c-27.36141 0-110.45846-4.48857-110.45846-95.40373z" fill="#00beca"/><path d="m244 645.49321 31-80 10-10v14c0 33.67375 16.33605 59.58152 58.60656 59.58152 38.54378 0 65.6745-21.8349 65.6745-55.71836 0-17.22249-8.33677-30.88801-8.33677-30.88801l43.72302 21.83153 3.83269 53.19332s-29.1163 57.10384-111.19099 57.10384c-64.08958 0-93.30901-29.10384-93.30901-29.10384z" fill="#8c7b11"/><path d="m244 645.49321s-35-26.74653-35-76.75901v-143.24099c0-11.51805 7.43235-21.49932 38.41957-21.49932 33.86428 0 37.58043 13.18152 37.58043 23.07085v59.42847h60c4.3293 0 6 2.5306 6 6.54022v35.45978c0 3.35305-1.36798 6-5.3036 6h-39.6964c-10.29405 0-21-4-21-4v24c0 29.92446-7.73252 60.49107-41 91z"/><path d="m448.5 617.49321 9.52732-104.67543 4.3046-18.21507s19.01379 27.72197 67.45301 116.903c30.76369-55.93601 50.38301-122.77677 50.38301-122.77677 1.37747-4.56897 5.02528-5.67513 10.30561-4.2834l33.20698 10.2632c4.0318 1.43878 6.21917 3.03158 3.94891 10.52817-27.62063 80.38034-70.87179 146.68547-70.87179 146.68547-8.32694 12.34014-16.80925 22.81654-44.91212 22.81654-22.67268 0-30.56873-7.72236-38.46582-19.50857z" fill="#ffab00"/><path d="m448.5 617.49321-51.76793-81.57153c-3.10695-5.81387-5.4749-9.33964-5.4749-16.24446.04-10.14929 5.31369-17.48763 23.1957-28.69122 3.86409-2.53909 17.79081-8.07451 29.07489-8.07451 15.21703 0 26.56968 15.74989 26.56968 48.70109 0 53.61539-21.59744 85.88063-21.59744 85.88063z" fill="#c80063"/></g></svg>