<svg xmlns="http://www.w3.org/2000/svg" width="1254" height="836" viewBox="0 0 1254 836">
<g>
<path d="M 189.50 519.43 C184.97,517.07 181.94,513.94 179.89,509.50 C178.15,505.72 178.04,501.25 178.02,429.62 C178.01,372.99 178.31,352.70 179.21,349.68 C180.90,344.05 186.49,338.48 191.91,337.02 C197.69,335.47 202.28,336.38 209.00,340.42 C223.22,348.97 294.31,390.81 309.00,399.27 C335.24,414.38 337.20,416.30 337.20,426.89 C337.20,434.24 334.41,440.84 329.87,444.24 C328.02,445.62 298.68,463.46 264.68,483.88 C204.52,520.00 202.72,521.00 197.68,520.99 C194.83,520.99 191.15,520.29 189.50,519.43 ZM 324.91 394.48 L 322.32 393.11 L 322.79 377.77 C323.19,364.46 322.98,361.33 321.13,353.97 C318.08,341.82 313.68,333.64 306.02,325.91 C300.51,320.34 298.44,318.96 292.63,317.04 C282.92,313.82 272.93,314.44 264.33,318.81 L 258.17 321.95 L 258.74 335.59 L 259.31 349.24 L 256.90 348.01 C248.07,343.50 215.00,322.27 215.00,321.11 C215.00,318.64 231.17,303.64 239.24,298.62 C248.10,293.11 258.22,289.40 268.62,287.85 C277.41,286.55 287.86,288.34 297.38,292.80 C304.12,295.95 314.03,304.53 319.37,311.84 C332.89,330.35 337.93,359.06 332.04,384.00 C329.39,395.21 328.56,396.42 324.91,394.48 ZM 156.50 503.90 C148.53,502.03 139.36,498.68 132.51,495.13 C124.46,490.96 113.60,481.17 108.92,473.87 C94.09,450.77 98.58,419.29 119.91,396.78 C131.44,384.62 145.33,376.79 160.32,374.01 C168.16,372.56 169.30,373.11 168.82,378.12 C168.51,381.36 168.19,381.60 161.00,384.06 C150.06,387.78 143.93,391.24 137.16,397.52 C125.91,407.93 121.80,418.23 121.62,436.50 C121.51,447.75 121.67,448.86 124.31,454.22 C127.07,459.84 136.58,471.00 138.61,471.00 C139.83,471.00 156.28,459.02 160.24,455.26 C161.75,453.82 163.32,452.99 163.74,453.40 C164.16,453.82 164.50,465.49 164.50,479.33 C164.50,497.78 164.75,503.48 162.57,504.65 C161.39,505.28 159.51,504.60 156.50,503.90 ZM 271.50 548.52 C256.67,545.76 240.50,537.65 228.87,527.14 C222.46,521.34 222.37,520.33 228.05,517.98 C230.80,516.84 231.46,517.02 236.38,520.29 C258.69,535.10 276.86,537.75 295.62,528.91 C306.95,523.57 312.68,515.50 314.46,502.39 L 315.15 497.27 L 303.90 490.66 C297.71,487.03 292.17,483.87 291.57,483.65 C290.82,483.37 290.83,482.90 291.61,482.07 C293.43,480.12 334.22,455.00 335.56,455.00 C340.14,455.00 342.56,498.44 338.63,510.00 C333.52,525.00 323.94,536.67 311.26,543.31 C299.16,549.64 286.48,551.30 271.50,548.52 Z" fill="rgba(227,21,32,1)"/>
<path d="M 420.50 456.60 C417.75,455.92 414.38,454.78 413.00,454.07 C410.25,452.64 403.00,446.00 403.00,444.92 C403.00,444.54 405.13,442.85 407.74,441.15 L 412.48 438.07 L 415.49 440.98 C417.15,442.59 420.17,444.60 422.22,445.45 C426.90,447.40 436.22,447.45 439.91,445.55 C443.74,443.56 445.62,438.91 444.08,435.19 C442.55,431.51 439.19,429.63 428.73,426.59 C418.43,423.61 413.43,421.16 409.81,417.34 C400.72,407.72 405.17,393.07 418.72,388.00 C429.78,383.87 443.04,386.39 451.04,394.16 L 455.24 398.23 L 450.52 401.30 C447.32,403.38 445.40,404.07 444.54,403.43 C439.56,399.75 437.59,398.70 434.27,397.92 C426.67,396.16 419.63,398.88 418.50,404.01 C417.17,410.05 420.18,412.22 437.27,417.53 C447.40,420.67 452.96,424.30 455.33,429.28 C458.86,436.72 456.32,447.39 449.86,452.27 C442.99,457.46 431.12,459.21 420.50,456.60 ZM 840.34 456.96 C832.97,455.50 822.00,448.62 822.00,445.46 C822.00,444.71 824.04,442.69 826.54,440.97 L 831.09 437.84 L 834.91 441.30 C839.84,445.75 844.77,447.33 852.09,446.80 C859.53,446.26 863.00,443.46 863.00,438.00 C863.00,432.61 859.96,430.39 847.35,426.61 C834.32,422.69 828.82,419.33 826.04,413.58 C821.10,403.38 826.15,392.33 837.72,388.00 C848.79,383.86 862.05,386.37 869.52,394.02 L 873.46 398.06 L 870.48 400.50 C865.86,404.28 864.50,404.37 860.09,401.18 C850.58,394.29 837.00,397.20 837.00,406.13 C837.00,409.69 841.38,413.31 847.63,414.94 C857.09,417.40 861.56,419.05 866.64,421.97 C875.64,427.13 878.23,436.40 873.47,446.43 C869.29,455.24 854.85,459.83 840.34,456.96 ZM 907.73 456.91 C898.11,454.65 889.55,447.53 885.15,438.15 C882.80,433.14 882.50,431.30 882.53,422.00 C882.55,412.47 882.81,411.00 885.36,406.12 C888.96,399.21 896.15,392.07 902.49,389.10 C912.25,384.53 925.07,385.37 932.97,391.09 C936.55,393.68 942.01,400.72 942.00,402.73 C941.99,403.58 934.20,407.00 932.27,407.00 C931.61,407.00 930.60,406.11 930.02,405.03 C928.18,401.60 920.81,398.00 915.62,398.00 C901.56,398.00 892.79,411.62 895.93,428.57 C897.42,436.66 900.94,441.60 907.31,444.57 C915.70,448.47 921.52,447.32 928.43,440.41 L 932.96 435.89 L 937.48 437.89 C939.96,438.99 942.00,440.37 942.00,440.97 C942.00,441.56 940.84,443.80 939.42,445.94 C933.24,455.28 920.11,459.83 907.73,456.91 ZM 974.41 456.66 C967.79,454.97 963.00,451.94 958.06,446.33 C947.04,433.82 946.57,411.46 957.06,398.75 C970.97,381.87 998.46,381.90 1011.84,398.80 C1017.06,405.39 1019.35,412.40 1019.42,422.00 C1019.47,429.52 1019.12,431.27 1016.34,437.15 C1010.34,449.86 1000.26,456.81 986.74,457.56 C982.66,457.78 977.28,457.39 974.41,456.66 ZM 991.78 445.45 C996.51,443.47 1000.59,439.60 1003.33,434.50 C1006.24,429.08 1006.40,415.24 1003.63,410.00 C998.96,401.20 993.79,398.00 984.25,398.00 C978.41,398.00 976.72,398.43 972.84,400.89 C962.06,407.72 959.59,427.24 968.04,438.89 C973.24,446.07 983.50,448.91 991.78,445.45 ZM 483.71 456.38 C483.32,455.99 483.00,442.93 483.00,427.37 L 483.00 399.07 L 472.25 398.78 L 461.50 398.50 L 461.50 393.00 L 461.50 387.50 L 489.00 387.50 L 516.50 387.50 L 516.80 393.25 L 517.10 399.00 L 506.57 399.00 L 496.03 399.00 L 495.77 427.75 L 495.50 456.50 L 489.96 456.79 C486.91,456.96 484.10,456.77 483.71,456.38 ZM 524.45 455.74 C524.19,455.05 524.09,439.41 524.24,420.99 L 524.50 387.50 L 539.96 387.22 C562.09,386.83 569.26,388.81 574.68,396.85 C578.92,403.15 578.92,414.85 574.68,421.15 C572.65,424.16 567.69,428.21 564.70,429.30 C563.77,429.64 563.77,430.17 564.69,431.62 C570.50,440.79 579.00,455.35 579.00,456.12 C579.00,456.68 576.17,456.97 572.36,456.80 L 565.72 456.50 L 559.77 446.00 C551.53,431.43 551.06,431.00 543.33,431.00 L 537.00 431.00 L 537.00 444.00 L 537.00 457.00 L 530.97 457.00 C527.05,457.00 524.77,456.56 524.45,455.74 ZM 560.14 418.99 C564.88,416.81 566.55,408.89 563.49,402.99 C561.49,399.11 556.68,397.79 546.00,398.19 L 537.50 398.50 L 537.21 408.43 C537.05,413.89 537.18,419.02 537.49,419.82 C537.95,421.02 539.80,421.19 547.77,420.75 C553.12,420.45 558.69,419.66 560.14,418.99 ZM 589.46 455.76 C589.19,455.06 589.09,439.41 589.24,420.99 L 589.50 387.50 L 612.50 387.50 L 635.50 387.50 L 635.80 393.25 L 636.10 399.00 L 619.01 399.00 L 601.92 399.00 L 602.21 407.75 L 602.50 416.50 L 618.00 417.00 L 633.50 417.50 L 633.50 422.00 L 633.50 426.50 L 618.00 427.00 L 602.50 427.50 L 602.21 436.25 L 601.92 445.00 L 617.71 445.01 C638.47,445.03 638.17,444.94 637.80,451.38 L 637.50 456.50 L 613.73 456.77 C595.18,456.98 589.84,456.76 589.46,455.76 ZM 645.00 456.04 C645.00,454.94 668.75,391.39 670.17,388.71 C670.96,387.21 672.20,386.96 677.67,387.21 L 684.22 387.50 L 691.96 407.00 C704.20,437.82 711.01,455.44 711.01,456.25 C711.00,456.66 708.11,457.00 704.57,457.00 L 698.14 457.00 L 696.06 451.42 C694.91,448.35 693.28,444.51 692.44,442.89 L 690.92 439.94 L 677.21 440.22 L 663.50 440.50 L 661.00 447.50 C659.62,451.36 658.14,455.07 657.69,455.75 C656.73,457.23 645.00,457.50 645.00,456.04 ZM 687.00 427.71 C687.00,425.60 678.26,404.50 677.39,404.50 C676.57,404.50 668.12,425.52 668.04,427.75 C668.01,428.67 670.54,429.00 677.50,429.00 C684.61,429.00 687.00,428.67 687.00,427.71 ZM 719.47 455.79 C719.20,455.07 719.09,439.41 719.24,420.99 L 719.50 387.50 L 728.41 387.21 C733.31,387.05 737.71,387.31 738.20,387.80 C738.69,388.29 742.78,399.33 747.29,412.35 C751.81,425.36 755.95,436.12 756.50,436.26 C757.05,436.39 761.14,425.48 765.60,412.00 L 773.69 387.50 L 783.10 387.50 L 792.50 387.50 L 792.50 422.00 L 792.50 456.50 L 786.50 456.50 L 780.50 456.50 L 780.88 430.75 C781.24,405.53 780.68,400.64 778.33,408.75 C776.15,416.28 762.00,455.40 761.15,456.25 C760.67,456.73 758.13,456.98 755.51,456.81 L 750.74 456.50 L 742.04 432.47 C737.26,419.25 732.82,407.55 732.18,406.47 C731.29,404.94 731.04,410.34 731.08,430.50 L 731.14 456.50 L 725.56 456.80 C721.66,457.01 719.82,456.71 719.47,455.79 ZM 1029.00 422.00 L 1029.00 387.00 L 1043.25 387.02 C1059.53,387.03 1067.31,388.47 1072.49,392.42 C1082.18,399.81 1083.36,416.42 1074.79,424.71 C1069.71,429.63 1064.80,431.21 1052.50,431.89 L 1041.50 432.50 L 1041.22 444.75 L 1040.94 457.00 L 1034.97 457.00 L 1029.00 457.00 L 1029.00 422.00 ZM 1065.02 418.25 C1068.83,414.82 1069.79,409.83 1067.63,404.67 C1065.43,399.39 1061.25,397.85 1050.19,398.21 L 1041.50 398.50 L 1041.22 409.75 L 1040.93 421.00 L 1051.45 421.00 C1061.52,421.00 1062.10,420.88 1065.02,418.25 ZM 1089.45 455.74 C1089.19,455.05 1089.09,439.41 1089.24,420.99 L 1089.50 387.50 L 1112.25 387.23 L 1135.00 386.96 L 1135.00 392.98 L 1135.00 399.00 L 1118.46 399.00 L 1101.92 399.00 L 1102.21 407.75 L 1102.50 416.50 L 1117.75 416.78 L 1133.00 417.05 L 1133.00 422.00 L 1133.00 426.95 L 1117.75 427.22 L 1102.50 427.50 L 1102.21 436.25 L 1101.92 445.00 L 1117.88 445.00 C1126.66,445.00 1134.55,445.27 1135.42,445.61 C1136.59,446.06 1137.00,447.61 1137.00,451.61 L 1137.00 457.00 L 1113.47 457.00 C1095.49,457.00 1089.82,456.70 1089.45,455.74 Z" fill="rgba(254,252,252,1)"/>
</g>
</svg>