<svg xmlns="http://www.w3.org/2000/svg" width="1024" height="1024" viewBox="0 0 1024 1024">
<g>
<path d="M 613.00 844.46 C590.92,841.12 572.25,835.16 552.01,824.99 C521.21,809.52 495.46,788.01 472.70,758.75 C469.39,754.49 465.99,751.00 465.15,751.00 C464.31,751.00 456.15,755.27 447.03,760.49 C428.21,771.24 420.01,774.00 406.89,774.00 C379.23,774.00 358.08,758.12 350.29,731.50 C348.65,725.90 348.51,714.59 348.24,563.52 C348.08,474.44 347.56,401.16 347.09,400.69 C345.77,399.37 326.06,403.71 313.08,408.18 C298.56,413.17 279.35,423.03 267.07,431.78 C231.16,457.37 205.97,500.36 203.32,540.58 C201.42,569.32 214.37,599.09 240.00,624.97 C251.48,636.57 271.42,653.00 274.00,653.00 C275.87,653.00 293.04,634.74 310.43,614.25 C315.21,608.61 319.55,604.00 320.06,604.00 C320.62,604.00 321.00,615.90 321.01,633.75 C321.01,661.95 322.17,700.88 323.59,720.40 L 324.24 729.31 L 318.37 728.68 C303.68,727.12 275.51,717.40 254.13,706.53 C228.60,693.55 210.84,681.13 195.50,665.54 C174.49,644.18 161.28,620.13 156.46,594.46 C153.86,580.62 154.85,551.15 158.37,537.24 C166.75,504.19 183.83,473.68 207.99,448.64 C220.20,435.98 229.97,427.85 245.32,417.60 C273.27,398.94 302.94,388.84 337.50,386.25 L 347.50 385.50 L 348.03 368.50 C348.61,349.48 349.76,345.23 357.40,333.72 C370.76,313.58 398.07,304.36 422.04,311.90 C425.63,313.03 435.31,317.84 443.54,322.60 C451.77,327.35 509.80,360.60 572.50,396.49 C635.20,432.37 689.70,463.59 693.60,465.86 C697.51,468.14 701.21,470.00 701.83,470.00 C704.67,470.00 711.76,450.07 715.48,431.65 C720.86,405.07 720.86,379.90 715.51,353.47 C712.38,338.02 708.33,326.51 700.91,312.00 C688.98,288.67 674.25,273.51 653.39,263.08 C622.04,247.40 582.13,249.21 535.50,268.43 C521.17,274.34 521.57,271.58 530.88,300.08 C545.58,345.08 546.14,347.00 544.48,347.00 C544.19,347.00 527.88,337.84 508.23,326.65 C488.58,315.46 463.63,301.27 452.79,295.11 C441.94,288.96 432.82,283.52 432.52,283.03 C431.74,281.77 441.96,270.51 453.55,259.86 C501.11,216.13 546.89,193.78 592.00,192.26 C614.94,191.49 630.09,194.94 651.34,205.75 C702.32,231.69 737.34,289.64 743.15,357.65 C746.05,391.66 738.00,429.84 720.31,465.91 C715.19,476.34 714.86,477.42 716.41,478.56 C717.34,479.24 724.72,483.55 732.80,488.13 C750.68,498.27 758.77,505.70 764.40,517.12 C772.90,534.41 773.05,552.11 764.83,569.00 C758.85,581.29 751.30,588.37 733.97,597.94 C717.91,606.82 680.92,627.73 615.00,665.23 C588.33,680.40 547.16,703.77 523.51,717.16 C493.41,734.21 480.42,742.08 480.16,743.42 C479.51,746.81 503.16,767.89 519.87,778.81 C538.40,790.92 563.19,801.24 585.64,806.20 C600.01,809.36 628.69,809.40 641.12,806.27 C672.09,798.47 697.10,778.07 711.89,748.54 C720.03,732.27 728.82,702.60 730.63,685.23 L 731.26 679.22 L 725.88 678.04 C719.36,676.61 683.89,670.69 671.70,669.00 C666.44,668.27 663.05,667.36 663.26,666.72 C663.45,666.14 669.44,662.31 676.56,658.22 C716.93,634.98 734.51,624.43 752.07,612.87 C762.84,605.79 772.15,600.00 772.76,600.00 C773.38,600.00 774.11,600.37 774.39,600.82 C775.63,602.82 784.12,647.73 785.49,659.49 C790.22,700.16 784.37,738.23 768.41,770.69 C749.33,809.48 718.23,833.08 673.00,843.08 C660.42,845.86 627.25,846.63 613.00,844.46 Z" fill="rgba(212,33,42,1)"/>
</g>
</svg>